<?xml version="1.0" encoding="UTF-8"?>
<svg id="Layer_1" data-name="Layer 1" xmlns="http://www.w3.org/2000/svg" viewBox="0 0 100 100" width="20px" height="20px">
  <defs>
    <style>
      .cls-1 {
        fill: #fff;
      }

      .cls-2 {
        fill: #9e007e;
      }
    </style>
  </defs>
  <circle class="cls-2" cx="50" cy="50" r="50"/>
  <path class="cls-1" d="M48.67,21.26l.12-.37c.37-1.19,2.05-1.19,2.43,0l.12.37c4.11,13.07,14.34,23.31,27.41,27.41l.37.12c1.19.37,1.19,2.05,0,2.43l-.37.12c-13.07,4.11-23.31,14.34-27.41,27.41l-.12.37c-.37,1.19-2.05,1.19-2.43,0l-.12-.37c-4.11-13.07-14.34-23.31-27.41-27.41l-.37-.12c-1.19-.37-1.19-2.05,0-2.43l.37-.12c13.07-4.11,23.31-14.34,27.41-27.41Z"/>
</svg>